<svg width="68" height="71" viewBox="0 0 68 71" fill="none" xmlns="http://www.w3.org/2000/svg">
<g clip-path="url(#clip0_94_1289)">
<path fill-rule="evenodd" clip-rule="evenodd" d="M-42.7632 106.332C-44.0501 106.332 -45.0902 107.386 -45.0902 108.689V144.27C-45.0902 146.627 -43.1968 148.558 -40.8862 148.558C-39.6596 148.558 -38.5126 148.008 -37.7059 147.082C-36.9293 147.98 -35.7988 148.558 -34.542 148.558C-32.215 148.558 -30.3217 146.61 -30.3217 144.27V119.077C-28.4283 123.274 -22.0212 120.444 -23.9746 116.136C-24.378 115.21 -24.7978 114.296 -25.2149 113.401H-21.6916C-17.1145 113.401 -17.1145 106.33 -21.6916 106.33C-28.7192 106.333 -35.7496 106.332 -42.7632 106.332ZM-56.8044 106.332C-55.5174 106.332 -54.4774 107.386 -54.4774 108.689V144.27C-54.4774 146.627 -56.3708 148.558 -58.6813 148.558C-59.9079 148.558 -61.0549 148.008 -61.8616 147.082C-62.6382 147.98 -63.7715 148.558 -65.0283 148.558C-67.3552 148.558 -69.2486 146.61 -69.2486 144.27V119.077C-71.1585 123.274 -77.5491 120.444 -75.5929 116.136C-75.1895 115.21 -74.7696 114.296 -74.3526 113.401H-77.8759C-82.453 113.401 -82.453 106.33 -77.8759 106.33C-70.8455 106.333 -63.8151 106.332 -56.8044 106.332ZM-56.5711 108.689C-56.5711 108.562 -56.6809 108.45 -56.8044 108.45H-65.6788C-65.3056 109.331 -65.2919 110.338 -65.6952 111.263H-61.398C-60.8245 111.263 -60.3416 111.752 -60.3416 112.333C-60.3416 112.914 -60.8218 113.403 -61.398 113.403H-66.6584L-67.1551 114.457V144.269C-67.1551 145.448 -66.1919 146.421 -65.0285 146.421C-63.865 146.421 -62.9018 145.448 -62.9018 144.269V126.65C-62.9018 125.174 -60.8081 125.077 -60.8081 126.758V144.266C-60.8246 145.428 -59.8449 146.417 -58.6815 146.417C-57.5181 146.417 -56.5549 145.444 -56.5549 144.266C-56.5549 132.389 -56.5711 120.552 -56.5711 108.689ZM-61.8616 105.123C-58.5578 105.123 -55.8576 102.405 -55.8576 99.0391C-55.8576 95.6926 -58.5578 92.9743 -61.8616 92.9743C-65.1655 92.9743 -67.8491 95.6926 -67.8491 99.0391C-67.8491 102.402 -65.1655 105.123 -61.8616 105.123ZM-61.8616 95.0948C-59.7048 95.0948 -57.9678 96.8681 -57.9678 99.0389C-57.9678 101.224 -59.7048 102.983 -61.8616 102.983C-64.0184 102.983 -65.7555 101.224 -65.7555 99.0389C-65.7555 96.8681 -64.0184 95.0948 -61.8616 95.0948ZM-70.146 109.253C-71.3094 111.846 -72.5196 114.426 -73.6831 117.016C-74.4432 118.698 -71.9132 119.86 -71.153 118.181C-69.9896 115.587 -68.7959 113.008 -67.6159 110.418C-66.8421 108.706 -69.4023 107.605 -70.146 109.253ZM-72.1025 108.45H-77.8732C-79.6898 108.45 -79.6898 111.263 -77.8732 111.263H-73.373C-72.9559 110.34 -72.5196 109.395 -72.1025 108.45ZM-42.9932 108.689C-42.9932 108.561 -42.8834 108.45 -42.7599 108.45H-33.8855C-34.256 109.331 -34.2724 110.337 -33.869 111.263H-38.1662C-38.7562 111.263 -39.22 111.752 -39.22 112.333C-39.22 112.914 -38.7562 113.403 -38.1662 113.403H-32.9059L-32.4092 114.456V144.269C-32.4092 145.447 -33.3724 146.42 -34.5358 146.42C-35.6993 146.42 -36.6624 145.447 -36.6624 144.269V126.649C-36.6624 125.174 -38.7562 125.076 -38.7562 126.758V144.265C-38.7397 145.427 -39.7166 146.417 -40.8828 146.417C-42.0462 146.417 -43.0067 145.444 -43.0067 144.265C-43.0094 132.389 -42.9932 120.552 -42.9932 108.689ZM-37.7027 105.123C-41.023 105.123 -43.7067 102.405 -43.7067 99.0386C-43.7067 95.6921 -41.023 92.9738 -37.7027 92.9738C-34.3988 92.9738 -31.7151 95.6921 -31.7151 99.0386C-31.7151 102.402 -34.3988 105.123 -37.7027 105.123ZM-37.7027 95.0943C-39.8595 95.0943 -41.5965 96.8676 -41.5965 99.0384C-41.5965 101.223 -39.8595 102.983 -37.7027 102.983C-35.5458 102.983 -33.8088 101.223 -33.8088 99.0384C-33.8088 96.8676 -35.5458 95.0943 -37.7027 95.0943ZM-29.4183 109.253C-28.2549 111.846 -27.0447 114.425 -25.8812 117.016C-25.1211 118.697 -27.6511 119.859 -28.4112 118.18C-29.5747 115.587 -30.7684 113.008 -31.9484 110.417C-32.7222 108.705 -30.162 107.604 -29.4183 109.253ZM-27.4646 108.449H-21.6939C-19.8773 108.449 -19.8773 111.262 -21.6939 111.262H-26.1941C-26.6084 110.339 -27.0447 109.394 -27.4646 108.449ZM183.272 20.2034C180.742 19.7948 179.332 23.0634 179.019 25.1231C178.042 31.5521 177.079 37.9779 176.102 44.4074C175.046 51.3867 184.28 57.4209 189.026 61.2569C190.02 62.0574 191.403 63.1108 191.973 64.2726C192.3 64.9174 192.407 65.6234 192.47 66.3322C192.533 66.977 193.013 67.3384 193.617 67.3384H203.298C203.951 67.3384 204.214 66.7408 204.214 66.1599C204.228 62.1992 204.728 57.8135 203.284 54.0444C202.384 51.7041 200.864 49.6278 199.467 47.5682C197 43.9549 192.703 36.3172 188.933 34.3825C188.949 32.4174 188.996 30.4384 189.073 28.4733C189.15 26.4304 188.313 23.1451 185.722 23.3814C185.475 21.9944 184.792 20.4546 183.272 20.2045L183.272 20.2034ZM210.842 42.6449C200.151 42.6449 191.48 33.8587 191.48 23.0332C191.48 12.2042 200.154 3.42155 210.842 3.42155C221.533 3.42155 230.203 12.2077 230.203 23.0332C230.203 33.8587 221.532 42.6449 210.842 42.6449ZM214.642 6.02794C217.496 9.64125 218.972 14.7024 219.469 19.2613C222.323 18.711 224.156 16.1955 225.41 13.7302C222.959 9.81387 219.096 7.03115 214.642 6.02794ZM217.312 19.2919C216.785 14.6085 215.032 8.66849 211.295 5.60315C211.138 5.60315 210.998 5.58647 210.844 5.58647C206.781 5.58647 202.868 7.03177 199.753 9.68897C201.926 10.5228 204.393 12.2183 206.331 13.508C208.177 14.7338 210.024 16.0373 211.915 17.1685C213.542 18.1441 215.419 19.0389 217.312 19.2919ZM217.513 23.5806C217.529 22.8885 217.513 22.1825 217.482 21.4904C215.139 21.2847 212.826 20.2341 210.825 19.0389C208.885 17.8938 207.025 16.5568 205.145 15.3144C203.669 14.3416 199.512 11.4648 197.914 11.512C195.648 14.122 194.207 17.3434 193.771 20.8013C194.951 21.3989 196.254 21.8075 197.541 22.1382C199.852 22.7358 202.228 23.111 204.602 23.3473C207.505 23.6614 210.419 23.7725 213.339 23.7392C214.739 23.7225 216.119 23.6751 217.513 23.5806ZM219.625 21.4293C219.656 22.0908 219.669 22.7662 219.656 23.425C220.462 23.3472 221.269 23.2666 222.062 23.1582C224.079 22.9052 226.063 22.5772 228.036 22.0742C227.926 19.984 227.446 17.9244 226.609 16.0066C225.009 18.6777 222.789 20.9401 219.625 21.4293ZM219.576 25.6096C219.529 26.1127 219.483 26.6158 219.436 27.1189C222.23 27.1189 224.524 28.4086 226.433 30.4349C227.317 28.5003 227.847 26.4435 228 24.32C225.24 24.9815 222.402 25.3734 219.576 25.6096ZM217.235 27.3524C217.312 26.8326 217.359 26.2989 217.406 25.7653C216.055 25.8431 214.705 25.8931 213.355 25.907C209.322 25.9543 205.238 25.7347 201.252 25.1037C198.722 24.7118 195.994 24.1309 193.618 23.1081C193.651 28.0278 195.698 32.6641 199.298 35.9629C202.648 35.5376 207.242 32.1272 210.252 30.3845C212.426 29.1448 214.769 27.8888 217.235 27.3524ZM211.292 40.4605C214.332 37.945 216.055 33.4979 216.846 29.6926C214.906 30.2597 213.045 31.2797 211.306 32.2859C208.205 34.062 204.835 36.5441 201.498 37.6753C204.275 39.4986 207.519 40.4576 210.839 40.4576C210.998 40.4603 211.138 40.4605 211.292 40.4605ZM214.642 40.0352C219.049 39.0318 222.899 36.294 225.333 32.4444C223.673 30.496 221.703 29.1757 219.113 29.3036C218.429 33.042 217.002 37.0332 214.642 40.0352ZM193.65 62.9492C192.92 61.6456 191.447 60.5449 190.3 59.6332C186.469 56.5368 177.252 50.4557 178.119 44.7185C179.098 38.2924 180.059 31.8637 181.036 25.4341C181.162 24.6642 181.765 22.1182 182.882 22.2905C183.829 22.449 183.812 24.5558 183.736 25.2618C183.459 28.4221 183.255 31.5796 183.132 34.7368C183.039 37.0799 182.465 42.2635 183.985 44.137C185.072 45.4739 187.382 46.1021 188.949 46.6663C189.836 48.2062 190.719 49.7627 191.573 51.3497C192.27 52.6533 194.163 51.4137 193.31 50.2491C192.209 48.1895 191.029 46.1938 189.88 44.1509C188.809 42.2497 187.739 40.3152 186.933 38.2723C186.482 37.0771 186.233 35.301 188.049 36.2432C191.153 37.8609 195.683 45.657 197.791 48.7373C199.094 50.6551 200.537 52.6036 201.377 54.7882C202.434 57.5538 202.214 62.1897 202.184 65.2088L194.38 65.2116C194.24 64.4111 194.053 63.6413 193.65 62.9492ZM187.026 28.3922C186.949 30.2155 186.919 32.0695 186.902 33.9094C186.142 33.9734 185.646 34.2708 185.182 34.8517C185.289 31.7248 185.569 28.5978 185.786 25.4678C186.839 25.137 187.056 27.7307 187.026 28.3922ZM185.566 42.8174C185.023 42.142 185.006 39.8961 185.006 38.9678C185.69 40.6966 186.496 42.2837 187.396 43.9013C186.806 43.6679 185.97 43.3204 185.566 42.8174ZM46.7492 35.3853C46.8123 35.149 46.8425 34.9155 46.8425 34.6793V30.7991C46.8425 29.3677 45.679 28.192 44.2658 28.192L41.3186 28.1864C41.132 25.4681 42.0321 23.5169 44.0792 21.7908C44.5127 21.4156 44.9792 21.0848 45.4594 20.7679C50.4399 25.5292 53.3103 27.7139 51.34 35.196H48.423C47.9264 35.196 47.4462 35.3377 47.0565 35.5879C46.9495 35.5267 46.8562 35.4464 46.7492 35.3853ZM39.2087 28.1865H36.2616C34.8348 28.1865 33.6712 29.365 33.6712 30.7937V34.6739C33.6712 35.0824 33.7645 35.4771 33.9511 35.8384C32.291 39.4073 31.4074 43.1759 31.6708 47.1399C31.5638 48.0349 31.454 48.9799 31.454 49.8889C31.454 54.7307 35.9378 57.9493 40.438 57.9493C41.5082 57.9493 42.6114 57.7603 43.6486 57.3822C43.9422 61.9573 48.2559 64.9567 52.5996 64.9567C56.3864 64.9567 60.3409 62.5691 61.3342 58.7168C62.6678 59.0003 64.1743 58.9363 65.1676 57.8524C67.4013 55.4009 64.981 50.1534 63.5843 47.7797C62.451 45.8452 60.7908 43.63 58.914 42.3903C58.9771 42.1541 59.0073 41.9206 59.0073 41.6843V37.8042C59.0073 36.3728 57.8438 35.1942 56.4306 35.1942L53.5137 35.197C54.2902 32.084 54.4137 28.9571 52.8935 26.033C51.6066 23.5509 49.3262 21.4913 47.323 19.6069C48.1764 19.1038 49.0463 18.584 49.8366 17.9725C51.2333 16.8886 52.2266 15.2848 51.7135 13.4615C50.6571 9.70641 45.3062 9.05876 42.9466 12.4692C41.3962 14.7484 42.3429 17.2943 43.9564 19.2261C43.5366 19.5096 43.1332 19.8237 42.7463 20.1545C40.2327 22.2641 39.0057 24.8707 39.2087 28.1865ZM44.6859 13.6973C46.0195 11.7322 49.1395 12.0463 49.6965 14.042C49.9435 14.9703 49.2301 15.7708 48.5632 16.2878C47.6797 16.9632 46.7028 17.4968 45.7396 18.0638C44.7161 16.9187 43.6459 15.1899 44.6859 13.6973ZM10.3192 16.777L15.253 8.07189V4.50306C15.253 3.90547 15.7332 3.41909 16.3232 3.41909C16.9131 3.41909 17.3933 3.90549 17.3933 4.50306V8.08584L22.3271 16.7774H22.5905C26.4844 16.7774 29.6814 20.0155 29.6814 23.9597V60.1511C29.6814 64.1119 26.4845 67.3335 22.5905 67.3335L10.0555 67.3363C6.16167 67.3363 2.96468 64.1149 2.96468 60.1539L2.96193 23.9597C2.96193 20.0156 6.15878 16.7773 10.0528 16.7773L10.3192 16.777ZM5.10548 54.2136H27.5413V29.9157H5.10548V54.2136ZM5.10548 58.0937H27.5413V56.3816H5.10548V58.0937ZM27.5413 60.2478H5.10548C5.15213 62.9661 7.37211 65.1675 10.0558 65.1675L22.5908 65.1647C25.2745 65.1647 27.4946 62.9662 27.5413 60.2478ZM5.10548 27.7472H27.5413V26.035L5.10548 26.0323V27.7472ZM5.10548 23.8642H27.5413C27.4946 21.1459 25.2747 18.9445 22.591 18.9445H10.0559C7.36951 18.9445 5.15213 21.1459 5.10548 23.8642ZM17.3933 12.4546V16.7767H19.8602L17.3933 12.4546ZM15.2529 16.7767V12.4546L12.786 16.7767H15.2529ZM45.8023 56.3173C47.3993 55.2334 48.6561 53.6629 49.1693 51.7117C50.4425 51.9785 51.853 51.9313 52.8463 51.0057C56.0734 51.1141 59.4239 53.3461 59.4239 56.8982C59.4239 60.5282 55.8867 62.7906 52.5966 62.7906C49.2928 62.7906 45.7693 60.5281 45.7693 56.8982C45.7721 56.6953 45.7721 56.5063 45.8023 56.3173ZM53.8562 48.8987C54.0428 47.5007 53.6696 45.833 53.0961 44.3098H56.4329C56.8061 44.3098 57.1765 44.2153 57.5196 44.0569C59.2566 45.1409 60.7164 47.1365 61.7399 48.8988C62.5 50.1884 64.8572 54.9969 63.5867 56.3785C63.1668 56.8511 62.1269 56.6926 61.5534 56.5509C61.364 52.3261 57.7638 49.4189 53.8562 48.8987ZM52.1494 42.1418C51.9024 41.6221 51.6527 41.169 51.4195 40.7743C50.7664 39.6597 49.9294 38.434 48.969 37.3639H56.4328C56.6661 37.3639 56.8664 37.5668 56.8664 37.803V38.6674H53.4226C52.8327 38.6674 52.3525 39.1538 52.3525 39.7514C52.3525 40.349 52.8327 40.8354 53.4226 40.8354H56.8664V41.6831C56.8664 41.936 56.6661 42.1389 56.4328 42.1389L52.1494 42.1418ZM54.3501 59.6025C53.2004 60.4669 54.427 62.243 55.6234 61.348C58.1205 59.508 58.4169 58.235 57.8268 55.3137C57.5168 53.7738 55.4368 54.277 55.7167 55.7084C56.1502 57.7958 56.1832 58.2516 54.3501 59.6025ZM35.6712 37.2386C35.8715 37.2691 36.0581 37.3025 36.2612 37.3025H44.268C44.6412 37.3025 45.0117 37.2247 45.3547 37.0495C47.0917 38.1335 48.5515 40.1292 49.5751 41.8914C50.3351 43.1811 52.6923 47.9896 51.4218 49.3712C50.9882 49.8437 49.962 49.6853 49.3885 49.5435C49.1882 44.8601 44.7949 41.8111 40.4375 41.8111C38.0007 41.8111 35.564 42.7089 33.8133 44.435C33.978 41.939 34.6477 39.5175 35.6712 37.2386ZM44.6995 33.8281V34.6758C44.6995 34.9288 44.4992 35.1317 44.2659 35.1317H36.2612C36.0114 35.1317 35.8276 34.9288 35.8276 34.6758V30.7957C35.8276 30.5595 36.0142 30.3566 36.2612 30.3566H44.268C44.5013 30.3566 44.7016 30.5595 44.7016 30.7957V31.6601H41.2551C40.6651 31.6601 40.1849 32.1465 40.1849 32.7441C40.1849 33.3417 40.6651 33.828 41.2551 33.828L44.6995 33.8281ZM40.4352 55.7829C37.1314 55.7829 33.6079 53.5204 33.6079 49.8904C33.6079 46.2437 37.1313 43.9812 40.4352 43.9812C43.7253 43.9812 47.2625 46.2437 47.2625 49.8904C47.2625 53.5205 43.7226 55.7829 40.4352 55.7829ZM42.1859 52.6087C41.0389 53.4565 42.2628 55.2326 43.4592 54.3542C45.9426 52.5003 46.2527 51.2274 45.6626 48.3033C45.3526 46.7635 43.2726 47.2666 43.5525 48.6952C43.9888 50.7854 44.019 51.2412 42.1859 52.6087ZM-55.7959 27.4933H-51.8253C-47.6516 27.4933 -44.2378 24.0356 -44.2378 19.8079L-44.235 18.129C-44.235 12.7229 -39.8748 8.30613 -34.5373 8.30613H-27.7869C-22.4662 8.30613 -18.106 12.7227 -18.106 18.129V52.6419C-18.106 58.0313 -22.4663 62.4477 -27.7869 62.4477H-71.741C-77.0783 62.4477 -81.4388 58.0312 -81.4388 52.6419L-81.4415 37.3017C-81.4415 32.8545 -78.4779 29.0662 -74.4442 27.8879V17.7846C-74.4442 16.4171 -73.3438 15.2859 -71.9937 15.2859C-70.6436 15.2859 -69.5268 16.4171 -69.5268 17.7846V21.1617H-60.7128V17.7846C-60.7128 16.4171 -59.6125 15.2859 -58.2459 15.2859C-56.8958 15.2859 -55.7955 16.4171 -55.7955 17.7846L-55.7959 27.4933ZM-74.4446 30.1199C-76.788 31.0315 -78.5717 33.0912 -79.1452 35.5899C-78.075 37.2409 -76.3682 38.3888 -74.4446 38.8113V30.1199ZM-79.3318 38.6364V42.5165C-77.9817 44.8429 -75.4544 46.2104 -72.8009 46.2104C-70.0706 46.2104 -67.4802 44.779 -66.1438 42.3275C-65.6471 41.3992 -64.6071 41.3992 -64.0967 42.3275C-62.7631 44.7624 -60.1864 46.2104 -57.4561 46.2104C-54.6928 46.2104 -52.1024 44.7484 -50.7688 42.2831C-50.3023 41.4187 -49.2321 41.4187 -48.7656 42.2831C-47.4457 44.7513 -44.8389 46.2104 -42.0948 46.2104C-39.3645 46.2104 -36.7741 44.779 -35.4542 42.3275C-34.9411 41.3992 -33.9011 41.3992 -33.4071 42.3275C-32.0735 44.7624 -29.4804 46.2104 -26.75 46.2104C-24.08 46.2104 -21.5665 44.8429 -20.2027 42.5165V38.6364C-22.0028 40.2401 -24.3297 41.1046 -26.75 41.1046C-29.73 41.1046 -32.5537 39.7843 -34.414 37.444C-36.2745 39.7872 -39.1146 41.1046 -42.0949 41.1046C-45.0723 41.1046 -47.9123 39.7843 -49.7759 37.444C-51.6363 39.7872 -54.4764 41.1046 -57.4568 41.1046C-60.4204 41.1046 -63.2604 39.7843 -65.1208 37.444C-66.9813 39.7872 -69.8214 41.1046 -72.8017 41.1046C-75.2055 41.1046 -77.5344 40.2402 -79.3318 38.6364ZM-79.3318 45.8657V49.7458C-77.9817 52.0722 -75.4544 53.4564 -72.8009 53.4564C-70.0706 53.4564 -67.4802 52.0111 -66.1438 49.5763C-65.6471 48.6479 -64.6071 48.634 -64.0967 49.5596C-62.7631 52.0111 -60.1864 53.4592 -57.4561 53.4592C-54.6928 53.4592 -52.1024 51.9833 -50.7688 49.5319C-50.3188 48.6675 -49.2321 48.6507 -48.7656 49.5152C-47.4457 51.9973 -44.8389 53.4593 -42.0948 53.4593C-39.3645 53.4593 -36.7741 52.014 -35.4542 49.5791C-34.9411 48.6508 -33.9011 48.6369 -33.4071 49.5625C-32.0735 52.014 -29.4804 53.4621 -26.75 53.4621C-24.08 53.4621 -21.5665 52.0807 -20.2027 49.7515V45.8714C-22.0028 47.489 -24.3297 48.3535 -26.75 48.3535C-29.73 48.3535 -32.5537 47.0332 -34.414 44.6929C-36.2745 47.036 -39.1146 48.3535 -42.0949 48.3535C-45.0723 48.3535 -47.9123 47.0166 -49.7759 44.6762C-51.6363 47.0166 -54.4764 48.3535 -57.4568 48.3535C-60.4204 48.3535 -63.2604 47.0332 -65.1208 44.6929C-66.9813 47.036 -69.8214 48.3535 -72.8017 48.3535C-75.2055 48.3479 -77.5344 47.4861 -79.3318 45.8657ZM-79.318 53.1256C-79.0683 57.117 -75.7645 60.3243 -71.7474 60.3243H-27.7933C-23.7897 60.3243 -20.4692 57.1196 -20.2227 53.1256C-22.0228 54.7127 -24.3497 55.5771 -26.7563 55.5771C-29.7363 55.5771 -32.56 54.2568 -34.4203 51.9166C-36.2808 54.2597 -39.1209 55.5771 -42.1012 55.5771C-45.0786 55.5771 -47.9186 54.2568 -49.7822 51.8998C-51.6426 54.2568 -54.4827 55.5771 -57.4631 55.5771C-60.4267 55.5771 -63.2667 54.2568 -65.1271 51.9166C-66.9876 54.2597 -69.8277 55.5771 -72.808 55.5771C-75.2064 55.5799 -77.5195 54.7155 -79.3197 53.1256H-79.318ZM-20.203 35.29V18.1296C-20.203 13.902 -23.6166 10.4442 -27.7905 10.4442H-34.5409C-38.7146 10.4442 -42.1284 13.9019 -42.1284 18.1296V19.8112C-42.1284 25.2006 -46.4887 29.617 -51.8261 29.617H-55.7967V38.8116C-53.6865 38.3419 -51.8261 36.9883 -50.7696 35.0566C-50.3196 34.1922 -49.233 34.1755 -48.7664 35.0566C-47.4465 37.5248 -44.8397 38.9868 -42.0956 38.9868C-39.3653 38.9868 -36.7749 37.5415 -35.455 35.1038C-34.9419 34.1755 -33.9019 34.1755 -33.4079 35.1038C-32.0743 37.5387 -29.4812 38.9868 -26.7508 38.9868C-24.0836 38.984 -21.5695 37.6164 -20.203 35.29ZM-57.8896 17.7824C-57.8896 17.5767 -58.0597 17.4183 -58.2463 17.4183C-58.4467 17.4183 -58.6031 17.5767 -58.6031 17.7824V23.283H-71.6376V17.7824C-71.6376 17.5767 -71.794 17.4183 -71.9943 17.4183C-72.1974 17.4183 -72.351 17.5767 -72.351 17.7824V38.9673C-72.1013 38.9506 -71.8708 38.9367 -71.6376 38.8894V30.4647H-58.6031V38.8894C-58.3698 38.9367 -58.1366 38.9534 -57.8896 38.9673L-57.8896 17.7824ZM-69.5269 38.2614C-68.1137 37.6027 -66.9063 36.502 -66.1462 35.1039C-65.6495 34.1756 -64.6095 34.1756 -64.0991 35.1039C-63.339 36.502 -62.1454 37.6027 -60.7184 38.2614V32.5885H-69.5324C-69.5269 34.8009 -69.5269 36.0434 -69.5269 38.2614ZM-71.6371 29.7421V24.0052H-58.6026V29.7421H-71.6371ZM-69.5269 27.6213H-60.7129V26.1259H-69.5269V27.6213ZM109.858 7.75632C103.948 7.75632 99.2304 11.2751 101.355 17.6262L103.558 24.2886C102.955 24.7444 102.365 25.2476 101.805 25.7645L99.3241 18.3324C96.7173 10.5388 102.441 5.58859 109.859 5.58859H127.78C135.211 5.58859 140.921 10.5388 138.315 18.3324L135.831 25.7645C135.271 25.2447 134.684 24.7417 134.078 24.2886L136.298 17.6262C138.424 11.2778 133.691 7.75632 127.78 7.75632H109.858ZM110.712 31.9432C107.548 32.9355 105.078 35.526 104.398 38.8419C104.057 40.554 104.241 42.2662 104.911 43.8866H100.86C99.4336 43.8866 99.4336 46.0713 100.86 46.0713H106.244C106.431 46.3047 106.631 46.5271 106.848 46.7467C110.308 50.2516 113.769 53.7398 117.229 57.2448C118.145 58.1871 119.492 58.1871 120.425 57.2448C123.886 53.7399 127.329 50.2517 130.79 46.7467C131.007 46.5271 131.21 46.3075 131.393 46.0713H136.794C138.207 46.0713 138.207 43.8866 136.794 43.8866H132.73C133.413 42.269 133.583 40.554 133.243 38.8419C132.576 35.5259 130.093 32.9327 126.929 31.9432C123.982 31.0316 121.081 31.8487 118.831 33.9222C116.559 31.8487 113.659 31.0315 110.712 31.9432ZM118.266 45.913L115.769 40.8849C115.039 39.4229 114.279 39.0616 113.349 40.6014L111.362 43.8868H107.328C104.971 40.0205 107.221 35.3063 111.348 34.0169C113.615 33.3109 115.802 34.0169 117.492 35.6346C118.252 36.3572 119.402 36.3572 120.146 35.6346C121.836 34.0169 124.023 33.3082 126.29 34.0169C130.433 35.3066 132.667 40.0206 130.31 43.8868H126.46L123.466 38.1194C122.613 36.485 121.696 37.1299 121.139 38.5446L118.266 45.913ZM128.43 46.0715L118.903 55.7051C118.826 55.7996 118.826 55.7996 118.733 55.7051C115.566 52.4976 112.386 49.2928 109.206 46.0715H111.906C112.326 46.0715 112.666 45.8991 112.883 45.5211L114.42 42.989L117.243 48.6786C117.91 50.0294 118.964 50.0155 119.524 48.5841L122.501 40.9293L124.844 45.4543C125.015 45.8323 125.404 46.0686 125.808 46.0686L128.43 46.0715ZM105.388 23.0159L103.371 16.9344C101.741 12.0314 105.482 9.92452 109.856 9.92452H127.777C132.154 9.92452 135.908 12.0313 134.261 16.9344L132.245 23.0159C128.351 20.5338 123.757 19.1024 118.824 19.1024C113.893 19.1024 109.282 20.5338 105.388 23.0159ZM131.19 67.1461C138.918 62.7628 144.145 54.3688 144.145 44.7686C144.145 38.1062 141.631 32.0248 137.518 27.4666L140.341 19.0284C143.428 9.83379 136.695 3.42133 127.773 3.42133H109.852C100.931 3.42133 94.2103 9.83358 97.2837 19.0284L100.107 27.4666C95.9939 32.025 93.4831 38.1064 93.4831 44.7686C93.4831 54.3717 98.7105 62.7629 106.438 67.1461C106.624 67.2739 106.827 67.3351 107.041 67.3351H130.577C130.802 67.3351 131.019 67.2711 131.189 67.1461H131.19ZM107.345 65.1671C100.347 61.1285 95.6301 53.5041 95.6301 44.7685C95.6301 31.7884 106.008 21.2732 118.826 21.2732C131.627 21.2732 142.005 31.7849 142.005 44.7685C142.005 53.507 137.288 61.1284 130.29 65.1671H107.345ZM259.755 61.2119L262.718 58.21L265.218 58.0071L265.018 60.5531L262.071 63.555L262.134 62.596C262.243 61.3702 261.763 61.0395 260.69 61.134L259.755 61.2119ZM302.812 11.7871C307.095 11.7871 310.553 15.2921 310.553 19.6284C310.553 23.9505 307.093 27.4696 302.812 27.4696C302.378 27.4696 301.925 27.4224 301.508 27.3418C301.075 28.7565 299.631 29.3541 298.715 28.4257L297.334 27.0137L296.821 27.5335C298.481 28.8232 300.561 29.5931 302.812 29.5931C308.258 29.5931 312.662 25.132 312.662 19.6286C312.662 14.1113 308.258 9.65056 302.812 9.65056C297.381 9.65056 292.974 14.1144 292.974 19.6286C292.974 22.0662 293.841 24.2953 295.271 26.0242L295.811 25.4905L294.415 24.0591C293.548 23.1947 294.025 21.8272 295.252 21.3241C295.145 20.7737 295.081 20.2095 295.081 19.6258C295.084 15.2898 298.545 11.7871 302.812 11.7871ZM302.065 25.2845C302.315 25.315 302.562 25.3317 302.812 25.3317C305.929 25.3317 308.459 22.769 308.459 19.6255C308.459 16.468 305.929 13.9053 302.812 13.9053C299.708 13.9053 297.178 16.468 297.178 19.6255C297.178 20.0007 297.208 20.3815 297.285 20.74L301.055 19.6866C302.419 19.2919 303.413 20.2981 303.039 21.6961L302.065 25.2845ZM302.812 7.52639C309.419 7.52639 314.759 12.9492 314.759 19.6284C314.759 26.3075 309.422 31.7304 302.812 31.7304C299.988 31.7304 297.381 30.7242 295.334 29.0426L294.867 29.5152C295.797 30.538 296.651 31.622 297.427 32.7671C299.088 33.4592 300.904 33.8511 302.811 33.8511C310.569 33.8511 316.869 27.4861 316.869 19.6287C316.869 11.7711 310.569 5.40631 302.811 5.40631C295.068 5.40631 288.77 11.7713 288.77 19.6287C288.77 21.6077 289.174 23.5088 289.903 25.2238C291.127 26.041 292.277 26.9693 293.347 27.9755L293.781 27.5364C291.964 25.4156 290.878 22.65 290.878 19.6318C290.878 12.9499 296.215 7.52639 302.812 7.52639ZM302.812 35.9719C311.732 35.9719 318.96 28.6643 318.96 19.6284C318.96 10.5924 311.732 3.26849 302.812 3.26849C293.904 3.26849 286.674 10.5924 286.674 19.6284C286.674 20.9959 286.83 22.3133 287.154 23.5891C281.35 20.604 274.666 19.7701 268.302 21.2794C268.195 20.729 267.932 20.2565 267.542 19.848C265.682 17.9635 262.592 18.0413 260.745 19.9119C258.851 21.8297 258.835 24.9733 260.759 26.8912C261.565 27.6778 262.559 28.117 263.599 28.2281L263.706 55.9642L262.139 56.0893C261.829 56.1059 261.565 56.2616 261.379 56.4812L256.258 61.6844C255.391 62.3904 256.025 63.7745 257.095 63.6022L259.919 63.3659L259.686 66.3205C259.609 67.3406 260.802 67.877 261.516 67.1544L266.79 61.8122C266.977 61.6232 267.086 61.4036 267.117 61.1368L267.24 59.533L294.626 59.6414C294.733 60.6949 295.152 61.715 295.945 62.5321C297.825 64.4805 300.926 64.4666 302.819 62.5321C304.619 60.7254 304.729 57.8181 303.083 55.8697C302.679 55.3666 302.103 55.0053 301.469 54.8802C302.989 48.3428 302.122 41.4583 299.063 35.5347C300.265 35.8321 301.521 35.971 302.811 35.971L302.812 35.9719ZM294.835 57.4741C294.898 57.2518 294.958 57.0489 295.052 56.8432C298.218 48.908 296.572 39.8081 290.925 33.5037L267.373 57.3598L294.835 57.4741ZM289.421 31.9638C283.2 26.2436 274.216 24.5928 266.366 27.7973C266.165 27.8751 265.962 27.9557 265.743 28.0169L265.852 55.8341L289.421 31.9638ZM263.185 24.3893C262.641 23.839 262.641 22.944 263.185 22.3937C263.788 21.7822 264.565 21.86 265.139 22.3631C265.399 22.5827 265.805 22.566 266.055 22.3158C266.351 22.0351 266.305 21.5459 265.992 21.2958C264.875 20.3535 263.292 20.3535 262.238 21.4208C261.168 22.5048 261.138 24.2809 262.222 25.365C263.138 26.2627 264.458 26.2766 265.589 25.8208C274.216 22.2852 284.083 24.1392 290.911 30.4569L291.871 29.4841C291.591 29.2312 291.328 28.9977 291.048 28.7475C283.757 22.5076 273.593 20.9539 264.798 24.6755C264.239 24.909 263.665 24.8757 263.185 24.3893ZM292.414 31.9965C298.651 38.8951 300.481 48.89 296.991 57.6456C296.541 58.7768 296.571 60.1277 297.455 61.0393C298.511 62.14 300.262 62.1233 301.332 61.0393C302.342 60.0193 302.433 58.2098 301.409 57.1564C301.149 56.9063 300.726 56.8757 300.449 57.1564C300.199 57.4094 300.183 57.818 300.416 58.0848L300.586 58.3044C300.989 58.7741 300.786 59.6552 300.386 60.0638C299.842 60.6141 298.942 60.6141 298.402 60.0638C297.935 59.5913 297.905 58.9937 298.136 58.4295C301.799 49.5188 300.262 39.2397 294.105 31.8546C293.871 31.5711 293.622 31.2876 293.375 31.0207L292.414 31.9965ZM299.598 26.3069L300.792 21.9681L296.495 23.1633L299.598 26.3069ZM51.9253 138.368C55.6792 134.563 55.6792 128.404 51.9253 124.601C48.1852 120.796 42.0878 120.796 38.3338 124.601C34.5771 128.404 34.5771 134.566 38.3338 138.368C42.0877 142.171 48.1874 142.171 51.9253 138.368ZM26.3888 97.1933C22.6322 100.996 22.6322 107.171 26.3888 110.96C30.1427 114.763 36.2263 114.763 39.9804 110.96C43.7343 107.175 43.7343 100.996 39.9804 97.1933C36.2237 93.3882 30.1429 93.3882 26.3888 97.1933ZM11.3073 112.47C7.55337 116.272 7.55337 122.448 11.3073 126.237C15.0612 130.042 21.1448 130.042 24.8988 126.237C28.6528 122.451 28.6528 116.272 24.8988 112.47C21.1422 108.664 15.0613 108.664 11.3073 112.47ZM5.78347 91.5984C2.02956 95.4036 2.02956 101.563 5.78347 105.368C9.53738 109.171 15.621 109.171 19.375 105.368C23.1289 101.563 23.1289 95.4038 19.375 91.5984C15.6184 87.7961 9.53752 87.7961 5.78347 91.5984ZM15.3878 101.327C13.8374 102.9 11.3238 102.9 9.77068 101.327C8.21757 99.7563 8.21757 97.2103 9.77068 95.6371C11.3211 94.0639 13.8347 94.0639 15.3878 95.6371C16.9381 97.2075 16.9381 99.7563 15.3878 101.327ZM13.8977 99.8174C13.1678 100.557 11.9878 100.557 11.2607 99.8174C10.5308 99.0808 10.5308 97.8857 11.2607 97.1464C11.9906 96.407 13.1706 96.407 13.8977 97.1464C14.6249 97.8857 14.6277 99.0781 13.8977 99.8174ZM13.6947 90.9537L5.1441 99.6146C5.37734 101.171 6.07433 102.664 7.25429 103.859C8.44794 105.054 9.92426 105.774 11.4444 106.01L19.995 97.3492C19.7782 95.7927 19.0648 94.3001 17.8848 93.105C16.7049 91.9126 15.2314 91.1899 13.6947 90.9537ZM5.34711 96.4071L10.5306 91.1566C9.33699 91.5013 8.20368 92.1461 7.25695 93.1051C6.32398 94.0501 5.69014 95.198 5.34711 96.4071ZM19.8084 100.557L14.6248 105.807C15.8185 105.463 16.9518 104.818 17.8848 103.859C18.8315 102.914 19.4681 101.769 19.8084 100.557ZM20.9115 122.198C19.3583 123.771 16.8475 123.771 15.2944 122.198C13.7412 120.627 13.7412 118.081 15.2944 116.525C16.8447 114.952 19.3583 114.952 20.9115 116.525C22.4618 118.079 22.4618 120.627 20.9115 122.198ZM19.4214 120.689C18.6915 121.425 17.5115 121.425 16.7844 120.689C16.0545 119.949 16.0545 118.754 16.7844 118.015C17.5143 117.275 18.6915 117.275 19.4214 118.015C20.1486 118.757 20.1486 119.949 19.4214 120.689ZM19.2348 111.841L10.6709 120.502C10.9042 122.059 11.6176 123.551 12.7975 124.746C13.9775 125.942 15.451 126.648 16.9877 126.884L25.5383 118.226C25.305 116.669 24.608 115.177 23.4116 113.981C22.229 112.783 20.7551 112.075 19.2348 111.841ZM10.8711 117.278L16.0546 112.044C14.861 112.375 13.7277 113.02 12.7947 113.979C11.848 114.938 11.2141 116.069 10.8711 117.278ZM25.3324 121.428L20.1488 126.678C21.3425 126.333 22.4758 125.686 23.4088 124.743C24.3555 123.784 24.9893 122.637 25.3324 121.428ZM35.9932 106.921C34.4401 108.492 31.9292 108.492 30.3761 106.921C28.8257 105.348 28.8257 102.805 30.3761 101.248C31.9292 99.6751 34.4401 99.6751 35.9932 101.248C37.5436 102.805 37.5436 105.351 35.9932 106.921ZM34.5032 105.412C33.7732 106.151 32.5961 106.151 31.8661 105.412C31.1362 104.675 31.1362 103.48 31.8661 102.741C32.5961 102.002 33.7732 102.002 34.5032 102.741C35.2304 103.48 35.2304 104.675 34.5032 105.412ZM34.3166 96.5646L25.7526 105.226C25.9859 106.782 26.6994 108.275 27.8792 109.47C29.0592 110.665 30.5327 111.371 32.0694 111.607L40.62 102.949C40.3867 101.393 39.6898 99.9 38.4934 98.7049C37.3107 97.5069 35.8368 96.7981 34.3166 96.5646ZM25.9529 102.001L31.1364 96.7675C29.9427 97.0982 28.8094 97.7403 27.8792 98.702C26.9297 99.661 26.2959 100.792 25.9529 102.001ZM40.4141 106.151L35.2306 111.401C36.4242 111.057 37.5575 110.412 38.4877 109.47C39.4372 108.508 40.0711 107.36 40.4141 106.151ZM57.3888 145.219L58.6154 143.993L64.2956 148.991C64.7456 149.383 65.3959 149.366 65.7856 148.944C66.1725 148.518 66.1725 147.829 65.7389 147.434L55.2453 137.895C54.8255 137.517 54.1916 137.503 53.7882 137.926L51.3982 140.344C50.9948 140.753 50.9948 141.398 51.3817 141.823L60.7858 152.446C61.1727 152.871 61.856 152.885 62.2758 152.493C62.7094 152.085 62.7094 151.423 62.3225 150.984L57.3888 145.219ZM57.076 142.534L55.9592 143.665L53.602 141.119L54.5487 140.161L57.076 142.534ZM42.338 128.64C43.8746 127.069 46.3882 127.069 47.9386 128.64C49.4917 130.213 49.4917 132.756 47.9386 134.329C46.3882 135.886 43.8746 135.886 42.338 134.329C40.7876 132.756 40.7876 130.21 42.338 128.64ZM43.8116 130.149C44.5415 129.413 45.7215 129.413 46.4486 130.149C47.1785 130.888 47.1785 132.084 46.4486 132.82C45.7187 133.56 44.5415 133.56 43.8116 132.82C43.0816 132.081 43.0816 130.888 43.8116 130.149ZM44.0146 138.996L52.5652 130.336C52.332 128.796 51.635 127.303 50.455 126.091C49.2751 124.896 47.8015 124.19 46.2649 123.954L37.7143 132.615C37.9475 134.171 38.6445 135.664 39.8245 136.859C41.0044 138.054 42.4779 138.777 44.0146 138.996ZM52.3622 133.56L47.1786 138.81C48.3723 138.466 49.5056 137.821 50.4523 136.862C51.3826 135.9 52.0191 134.769 52.3622 133.56ZM37.9178 129.41L43.0849 124.16C41.8912 124.504 40.7744 125.149 39.8277 126.094C38.8782 127.053 38.2416 128.201 37.9178 129.41ZM129.022 152.722C140.737 152.722 150.231 143.088 150.231 131.222C150.231 120.488 142.457 111.577 132.296 109.99C131.429 106.88 128.602 104.6 125.282 104.6H122.335V99.6502H123.452C124.925 99.6502 126.135 98.4245 126.135 96.9319V91.5258C126.135 90.0332 124.925 88.8075 123.452 88.8075H96.5159C95.0423 88.8075 93.8322 90.0332 93.8322 91.5258V96.9319C93.8322 98.4245 95.0423 99.6502 96.5159 99.6502H97.6327V104.6H94.6856C90.682 104.6 87.3945 107.916 87.3945 111.988V145.337C87.3945 149.392 90.6847 152.722 94.6856 152.722L129.022 152.722ZM129.939 109.754C129.629 109.737 129.335 109.72 129.022 109.72C124.569 109.72 120.428 111.121 117.028 113.492H89.5353V111.983C89.5353 109.106 91.8458 106.763 94.6859 106.763H125.282C127.318 106.769 129.102 107.978 129.939 109.754ZM114.394 115.663C113.337 116.669 112.393 117.784 111.57 118.979H95.5283C94.0382 118.979 92.8281 120.218 92.8281 121.714V135.592C92.8281 137.101 94.0382 138.327 95.5283 138.327H108.996C109.383 139.491 109.88 140.606 110.47 141.659H89.538V115.666L114.394 115.663ZM111.834 143.824C113.867 146.668 116.581 148.994 119.731 150.551H94.6888C91.8487 150.551 89.5382 148.194 89.5382 145.334V143.824H111.834ZM120.211 104.6V99.6502H99.7762V104.6H120.211ZM96.5188 97.4792H123.455C123.751 97.4792 123.998 97.2263 123.998 96.9289V91.5228C123.998 91.2226 123.748 90.9558 123.455 90.9558H96.5188C96.2251 90.9558 95.9754 91.2226 95.9754 91.5228V96.9289C95.9754 97.2291 96.2224 97.4792 96.5188 97.4792ZM110.296 121.116C108.699 124.118 107.799 127.559 107.799 131.222C107.799 132.934 108 134.602 108.373 136.203H95.5253C95.185 136.203 94.9216 135.936 94.9216 135.592V121.714C94.9216 121.383 95.185 121.116 95.5253 121.116L110.296 121.116ZM124.214 138.874L126.961 135.528C127.581 135.828 128.281 136 129.024 136C130.388 136 131.615 135.419 132.468 134.474L135.059 137.098C135.012 137.351 134.982 137.601 134.982 137.868C134.982 139.847 136.579 141.467 138.535 141.467C140.506 141.467 142.103 139.85 142.103 137.868C142.103 135.872 140.506 134.255 138.535 134.255C137.619 134.255 136.782 134.616 136.145 135.197L133.555 132.556C133.678 132.131 133.741 131.692 133.741 131.22C133.741 130.7 133.665 130.197 133.508 129.724L136.362 126.834C136.922 127.07 137.542 127.195 138.192 127.195C140.799 127.195 142.909 125.057 142.909 122.417C142.909 119.776 140.799 117.639 138.192 117.639C135.585 117.639 133.459 119.776 133.459 122.417C133.459 123.626 133.909 124.727 134.639 125.574L132.375 127.854C131.521 126.975 130.328 126.439 129.024 126.439C127.908 126.439 126.881 126.831 126.077 127.476L123.967 125.78C124.354 125.105 124.571 124.301 124.571 123.454C124.571 120.813 122.461 118.676 119.854 118.676C117.247 118.676 115.12 120.813 115.12 123.454C115.12 126.094 117.244 128.232 119.854 128.232C120.864 128.232 121.794 127.917 122.568 127.367L124.771 129.143C124.461 129.771 124.291 130.48 124.291 131.217C124.291 132.348 124.681 133.368 125.314 134.188L122.661 137.44C122.211 137.22 121.698 137.095 121.154 137.095C119.201 137.095 117.601 138.713 117.601 140.709C117.601 142.688 119.198 144.308 121.154 144.308C123.125 144.308 124.722 142.69 124.722 140.709C124.725 140.039 124.538 139.411 124.214 138.874ZM119.854 120.802C121.297 120.802 122.474 121.998 122.474 123.46C122.474 124.922 121.294 126.114 119.854 126.114C118.41 126.114 117.23 124.919 117.23 123.46C117.23 121.998 118.41 120.802 119.854 120.802ZM138.192 119.766C139.635 119.766 140.799 120.961 140.799 122.423C140.799 123.885 139.635 125.077 138.192 125.077C136.732 125.077 135.569 123.882 135.569 122.423C135.571 120.958 136.735 119.766 138.192 119.766ZM121.157 139.238C121.964 139.238 122.617 139.9 122.617 140.714C122.617 141.515 121.964 142.176 121.157 142.176C120.35 142.176 119.7 141.515 119.7 140.714C119.7 139.897 120.35 139.238 121.157 139.238ZM138.532 136.392C139.339 136.392 139.989 137.054 139.989 137.868C139.989 138.685 139.336 139.347 138.532 139.347C137.725 139.347 137.075 138.685 137.075 137.868C137.075 137.054 137.728 136.392 138.532 136.392ZM129.021 128.565C130.464 128.565 131.628 129.76 131.628 131.222C131.628 132.685 130.464 133.877 129.021 133.877C127.564 133.877 126.4 132.682 126.4 131.222C126.4 129.76 127.564 128.565 129.021 128.565ZM129.021 111.86C139.572 111.86 148.136 120.521 148.136 131.222C148.136 141.923 139.572 150.584 129.021 150.584C118.456 150.584 109.89 141.923 109.89 131.222C109.892 120.518 118.456 111.86 129.021 111.86ZM183.307 94.9276V90.9669H180.98V99.4997C180.98 103.16 178.296 106.209 174.819 106.729V130.774H202.685V106.729C199.211 106.209 196.511 103.16 196.511 99.4997V90.9669H194.184V94.9276C194.181 102.188 183.307 102.188 183.307 94.9276ZM195.688 146.57L209.699 150.325L212.429 138.679V124.457H204.778V131.592C204.778 132.314 204.188 132.912 203.475 132.912H197.951L195.688 146.57ZM204.779 117.795H228.191C228.748 117.795 229.214 118.264 229.214 118.831V121.377L233.498 147.165C233.591 147.716 233.248 148.249 232.721 148.374L216.849 152.618C216.227 152.791 215.623 152.571 215.453 151.882L213.482 143.41L211.496 151.882C211.326 152.574 210.719 152.794 210.099 152.618L194.244 148.374C193.701 148.233 193.36 147.746 193.454 147.165L195.827 132.912H174.012C173.298 132.912 172.708 132.315 172.708 131.592V105.754C172.708 105.157 173.191 104.687 173.765 104.687C176.572 104.687 178.885 102.361 178.885 99.5004V89.8973C178.885 89.3164 179.349 88.8439 179.942 88.8439H184.362C184.936 88.8439 185.419 89.3136 185.419 89.8973V90.7006C187.559 91.4232 189.936 91.4232 192.09 90.7006V89.8973C192.09 89.3164 192.556 88.8439 193.146 88.8439H197.57C198.143 88.8439 198.626 89.3136 198.626 89.8973V99.5004C198.626 102.36 200.923 104.687 203.747 104.687C204.32 104.687 204.787 105.157 204.787 105.754L204.779 117.795ZM192.088 92.9182V94.9278C192.088 99.3749 185.417 99.3749 185.417 94.9278V92.9182C187.587 93.5158 189.914 93.5158 192.088 92.9182ZM216.09 124.46V131.25C216.09 132.365 215.453 133.34 214.523 133.813V124.462L216.09 124.46ZM214.52 136.072C216.63 135.505 218.197 133.557 218.197 131.247V124.457H227.585L231.278 146.57L217.253 150.325L214.52 138.679L214.52 136.072ZM222.174 119.934V122.322H219.474V119.934H222.174ZM224.265 122.322V119.934H227.105V122.322H224.265ZM217.361 119.934V122.322H214.521V119.934H217.361ZM207.48 119.934V122.322H204.779V119.934H207.48ZM209.59 122.322V119.934H212.43V122.322H209.59ZM287.417 134.871L284.501 149.047C283.367 154.564 274.974 153.933 275.95 147.365C276.817 141.551 279.037 132.261 280 126.697C278.293 127.811 275.84 126.95 274.88 125.049H270.412V130.58C270.412 132.106 269.169 133.362 267.666 133.362C266.162 133.362 264.922 132.106 264.922 130.58V125.049H263.851V128.459C263.851 129.999 262.611 131.241 261.107 131.241C259.587 131.241 258.361 129.999 258.361 128.459V125.049H256.917C256.344 125.049 255.861 124.562 255.861 123.979C255.861 123.398 256.344 122.908 256.917 122.908H258.361V119.498C258.361 117.958 259.587 116.716 261.107 116.716C262.614 116.716 263.851 117.958 263.851 119.498V122.908H264.922V117.377C264.922 115.854 266.162 114.598 267.666 114.598C269.169 114.598 270.412 115.854 270.412 117.377V122.908H274.476V111.907C274.476 107.852 277.75 104.539 281.751 104.539H293.064C297.065 104.539 300.338 107.855 300.338 111.907V122.908H304.402V117.377C304.402 115.854 305.645 114.598 307.149 114.598C308.669 114.598 309.896 115.854 309.896 117.377V122.908H310.983V119.498C310.983 117.958 312.206 116.716 313.727 116.716C315.233 116.716 316.473 117.958 316.473 119.498V122.908H317.917C318.49 122.908 318.957 123.395 318.957 123.979C318.957 124.559 318.493 125.049 317.917 125.049H316.473V128.459C316.473 129.999 315.23 131.241 313.727 131.241C312.206 131.241 310.983 129.999 310.983 128.459V125.049H309.896V130.58C309.896 132.106 308.672 133.362 307.149 133.362C305.643 133.362 304.402 132.106 304.402 130.58V125.049H299.935C298.974 126.95 296.535 127.814 294.828 126.697C295.775 132.261 298.009 141.548 298.862 147.365C299.839 153.933 291.461 154.561 290.311 149.047L287.417 134.871ZM281.754 106.662C278.916 106.662 276.57 109.019 276.57 111.913V123.309C276.57 125.605 280 125.605 280 123.309V115.623C280 114.225 282.094 114.225 282.094 115.623C282.094 119.017 282.094 120.59 282.08 122.917H292.741V115.623C292.741 114.225 294.835 114.225 294.835 115.623V123.309C294.835 125.605 298.249 125.605 298.249 123.309V111.913C298.249 109.022 295.922 106.662 293.068 106.662H281.754ZM282.08 125.048V126.274C282.067 126.683 282.034 127.03 281.954 127.469L278.027 147.585C277.267 151.484 281.891 151.657 282.464 148.699L286.345 128.676C286.592 127.436 288.222 127.436 288.468 128.676L292.346 148.699C292.919 151.654 297.56 151.482 296.799 147.585L292.873 127.469C292.779 127.03 292.749 126.683 292.749 126.274V125.048H282.08ZM287.418 88.7453C291.235 88.7453 294.322 91.8722 294.322 95.7385C294.322 99.6048 291.235 102.748 287.418 102.748C283.601 102.748 280.497 99.6048 280.497 95.7385C280.497 91.8722 283.601 88.7453 287.418 88.7453ZM287.418 100.611C290.071 100.611 292.228 98.4403 292.228 95.7386C292.228 93.0509 290.071 90.8662 287.418 90.8662C284.748 90.8662 282.607 93.0508 282.607 95.7386C282.607 98.4431 284.75 100.611 287.418 100.611ZM307.153 116.735C307.512 116.735 307.806 117.018 307.806 117.38V130.582C307.806 130.944 307.512 131.227 307.153 131.227C306.813 131.227 306.519 130.946 306.519 130.582V117.38C306.516 117.018 306.81 116.735 307.153 116.735ZM313.733 118.842C314.09 118.842 314.37 119.139 314.37 119.503V128.461C314.37 128.823 314.09 129.123 313.733 129.123C313.377 129.123 313.08 128.823 313.08 128.461V119.503C313.08 119.139 313.377 118.842 313.733 118.842ZM267.666 116.735C267.309 116.735 267.032 117.018 267.032 117.38V130.582C267.032 130.944 267.309 131.227 267.666 131.227C268.023 131.227 268.319 130.946 268.319 130.582V117.38C268.316 117.018 268.023 116.735 267.666 116.735ZM261.105 118.842C260.748 118.842 260.452 119.139 260.452 119.503V128.461C260.452 128.823 260.748 129.123 261.105 129.123C261.462 129.123 261.742 128.823 261.742 128.461V119.503C261.742 119.139 261.462 118.842 261.105 118.842Z" fill="black"/>
</g>
<defs>
<clipPath id="clip0_94_1289">
<rect width="68" height="71" fill="white"/>
</clipPath>
</defs>
</svg>
