<svg width="19" height="19" viewBox="0 0 19 19" fill="none" xmlns="http://www.w3.org/2000/svg">
<path d="M13.3002 0H5.69982C2.55694 0 0 2.55706 0 5.70009V13.2999C0 16.4429 2.55694 19 5.69982 19H13.2993C16.4422 19 18.9991 16.4429 18.9991 13.2999L19 5.70009C19 2.55706 16.4431 0 13.3002 0ZM17.0995 13.3008C17.0995 15.3965 15.3949 17.1012 13.2993 17.1012L5.69982 17.1003C3.60425 17.1003 1.89964 15.3956 1.89964 13.2999L1.90053 5.70011C1.90053 3.60444 3.60514 1.89975 5.70071 1.89975H13.3002C15.3958 1.89975 17.1004 3.60444 17.1004 5.70011L17.0995 13.3008ZM9.50001 4.75068C6.88083 4.75068 4.75046 6.88199 4.75046 9.50046C4.75046 12.1198 6.88167 14.2502 9.50001 14.2502C12.1192 14.2502 14.2496 12.1189 14.2496 9.50046C14.2496 6.88115 12.1192 4.75068 9.50001 4.75068ZM9.50001 12.3505C7.92811 12.3505 6.6501 11.0724 6.6501 9.50046C6.6501 7.92848 7.92811 6.65041 9.50001 6.65041C11.0719 6.65041 12.3499 7.92848 12.3499 9.50046C12.3499 11.0724 11.0719 12.3505 9.50001 12.3505ZM14.9246 4.07557C15.0947 4.25637 15.1998 4.50307 15.1998 4.75066C15.1998 4.99736 15.0947 5.24497 14.9246 5.42487C14.7439 5.59587 14.4963 5.70007 14.2496 5.70007C14.002 5.70007 13.7553 5.59497 13.5754 5.42487C13.4044 5.24407 13.3002 4.99736 13.3002 4.75066C13.3002 4.50307 13.4044 4.25635 13.5754 4.07645C13.9361 3.72464 14.563 3.72465 14.9246 4.07557Z" fill="#A7E6FF"/>
</svg>
