<svg width="19" height="24" viewBox="0 0 19 24" fill="none" xmlns="http://www.w3.org/2000/svg">
<path d="M9.49901 0C5.03941 0 1.27867 3.06285 0.229326 7.21218C-0.121097 8.60062 -0.0727466 10.5693 0.393845 11.9399C1.71557 15.824 5.45663 20.5779 7.52843 23.0736C8.55365 24.3093 10.4497 24.3083 11.475 23.0736C13.5468 20.5789 17.2833 15.8305 18.606 11.9466C19.0735 10.5732 19.121 8.60081 18.7696 7.21218C17.7202 3.06285 13.9586 0 9.49901 0ZM9.49901 1.49999C13.2847 1.49999 16.4497 4.09485 17.3317 7.58442C17.5715 8.53315 17.5074 10.5534 17.1997 11.4582C16.0435 14.8547 12.3656 19.6633 10.3338 22.1101C9.83746 22.7072 9.16265 22.7091 8.66539 22.1101C6.63354 19.6623 2.95467 14.8501 1.79944 11.4546C1.49271 10.5509 1.43322 8.53337 1.67303 7.58466C2.55603 4.09533 5.71336 1.50023 9.49933 1.50023L9.49901 1.49999ZM9.49901 4.8158C6.89183 4.8158 4.75768 6.94953 4.75768 9.56608C4.75768 12.1826 6.89178 14.3099 9.49901 14.3099C12.1062 14.3099 14.2477 12.1827 14.2477 9.56608C14.2477 6.94945 12.1062 4.8158 9.49901 4.8158ZM9.49901 6.31579C11.3096 6.31579 12.7596 7.76703 12.7596 9.56608C12.7596 11.3642 11.3105 12.8109 9.49901 12.8109C7.68838 12.8109 6.24485 11.3652 6.24485 9.56608C6.24485 7.76797 7.68833 6.31579 9.49901 6.31579Z" fill="#A7E6FF"/>
</svg>
