<svg width="19" height="19" viewBox="0 0 19 19" fill="none" xmlns="http://www.w3.org/2000/svg">
<path d="M18.993 14.7323C18.9619 14.1842 18.6987 13.6731 18.2714 13.3342L15.6681 11.2604C14.8834 10.6357 13.7722 10.7123 13.0818 11.4421L11.8914 12.7001C11.7829 12.8165 11.5773 12.9329 10.9595 12.8259C9.39466 12.5496 6.70748 10.081 6.20474 8.02594C6.13494 7.74009 6.10287 7.35485 6.33774 7.12958L7.59129 5.93504C8.31852 5.24216 8.39493 4.12715 7.7724 3.33961L5.70576 0.727216C5.36525 0.298441 4.8578 0.0315074 4.30979 0.0031082C3.76178 -0.0281286 3.22789 0.177272 2.84212 0.56535L1.25372 2.15932C-0.064917 3.48257 -0.35451 5.45528 0.43782 7.71825C2.33562 13.141 8.17229 17.8102 11.3548 18.6394C12.0981 18.8334 12.9291 19 13.7601 19C14.8514 19 15.9456 18.7094 16.8482 17.8026L18.4366 16.2087C18.8234 15.8206 19.028 15.2829 18.9969 14.7358L18.993 14.7323ZM17.58 15.3485L15.9916 16.9425C15.0767 17.8606 13.7797 18.0139 11.6575 17.4612C8.79562 16.7153 3.31743 12.2856 1.5762 7.31036C1.21118 6.26821 0.79614 4.32504 2.10724 3.00928L3.69564 1.41531C3.83052 1.27995 4.00692 1.20707 4.19744 1.20707H4.24083C4.44645 1.21937 4.62945 1.31403 4.75771 1.47589L6.82435 4.08828C7.05638 4.3817 7.02714 4.7963 6.75643 5.05282L5.50287 6.24735C4.99069 6.73482 4.82469 7.46649 5.02938 8.30986C5.64532 10.8399 8.77214 13.6701 10.7473 14.0166C11.3199 14.116 12.1528 14.1766 12.764 13.532L13.9544 12.2769C14.21 12.0052 14.6231 11.9768 14.9155 12.2087L17.5188 14.2826C17.681 14.4113 17.7744 14.595 17.7867 14.8013C17.7989 15.0076 17.7235 15.2007 17.5792 15.3493L17.58 15.3485Z" fill="#A7E6FF"/>
</svg>
