<svg width="22" height="21" viewBox="0 0 22 21" fill="none" xmlns="http://www.w3.org/2000/svg">
<path d="M21.4892 10.9441C21.8062 11.3455 22 11.8498 22 12.3875C22 13.2247 21.5598 13.9506 20.9172 14.3956C21.0232 14.669 21.0929 14.9676 21.0929 15.2929C21.0929 16.1218 20.6613 16.8477 20.011 17.2917C20.1867 17.7191 20.2402 18.2234 20.1256 18.7185C19.8706 19.8551 18.7621 20.6153 17.5646 20.6153H10.3048C9.16949 20.6153 8.06089 20.4187 7.00482 20.034L7.00577 7.09951C8.75699 5.81831 10.3764 4.34886 11.8106 2.71627L13.9838 0.255865C14.1242 0.101971 14.3362 0 14.5644 0C16.1743 0 16.3328 2.93055 15.1449 4.67326L13.5255 7.06508H19.4999C20.873 7.06508 21.9999 8.14975 21.9999 9.49961C21.9999 10.0382 21.8062 10.5427 21.4892 10.9441ZM0.811628 21H5.31087C5.75869 21 6.1225 20.6468 6.1225 20.212V6.32724C6.1225 5.89245 5.75869 5.53923 5.31087 5.53923H0.811628C0.363806 5.53923 0 5.89153 0 6.32724V20.2129C0 20.6477 0.363806 21 0.811628 21Z" fill="#A7E6FF"/>
</svg>
