<svg width="22" height="21" viewBox="0 0 22 21" fill="none" xmlns="http://www.w3.org/2000/svg">
<path d="M0.510839 10.0559C0.193818 9.6545 -1.03594e-06 9.15018 -1.08295e-06 8.61248C-1.15614e-06 7.77535 0.440194 7.04945 1.08281 6.60446C0.976824 6.33098 0.907118 6.03245 0.907118 5.70707C0.907118 4.87827 1.33871 4.15237 1.98898 3.7083C1.81328 3.28092 1.75981 2.77659 1.8744 2.28155C2.12935 1.14495 3.23793 0.38476 4.43544 0.38476L11.6952 0.384759C12.8305 0.384759 13.9391 0.581298 14.9952 0.966029L14.9942 13.9005C13.243 15.1817 11.6236 16.6511 10.1894 18.2837L8.01618 20.7441C7.87581 20.898 7.66384 21 7.43562 21C5.82574 21 5.66722 18.0695 6.85507 16.3267L8.47451 13.9349L2.50005 13.9349C1.12696 13.9349 0.00011945 12.8503 0.000119332 11.5004C0.000119285 10.9618 0.193835 10.4573 0.510839 10.0559ZM21.1884 2.48665e-05L16.6891 2.52598e-05C16.2413 2.5299e-05 15.8775 0.353243 15.8775 0.788031L15.8775 14.6728C15.8775 15.1076 16.2413 15.4608 16.6891 15.4608L21.1884 15.4608C21.6362 15.4608 22 15.1085 22 14.6728L22 0.787081C22 0.352293 21.6362 2.48273e-05 21.1884 2.48665e-05Z" fill="#FFE3A7"/>
</svg>
