<svg width="22" height="21" viewBox="0 0 22 21" fill="none" xmlns="http://www.w3.org/2000/svg">
<path d="M0.510839 10.0559C0.193819 9.65449 -1.03595e-06 9.15016 -1.08295e-06 8.61247C-1.15614e-06 7.77534 0.440195 7.04944 1.08281 6.60444C0.976825 6.33097 0.907118 6.03243 0.907118 5.70705C0.907118 4.87825 1.33871 4.15235 1.98898 3.70828C1.81329 3.2809 1.75981 2.77657 1.8744 2.28153C2.12935 1.14493 3.23793 0.384735 4.43544 0.384735L11.6952 0.384734C12.8305 0.384734 13.9391 0.581274 14.9952 0.966005L14.9942 13.9005C13.243 15.1817 11.6236 16.6511 10.1894 18.2837L8.01618 20.7441C7.87581 20.898 7.66384 21 7.43562 21C5.82574 21 5.66722 18.0695 6.85507 16.3267L8.47451 13.9349L2.50005 13.9349C1.12696 13.9349 0.00011945 12.8503 0.000119332 11.5004C0.000119285 10.9618 0.193836 10.4573 0.510839 10.0559ZM21.1884 -1.67434e-07L16.6891 2.25902e-07C16.2413 2.65052e-07 15.8775 0.353219 15.8775 0.788007L15.8775 14.6728C15.8775 15.1075 16.2413 15.4608 16.6891 15.4608L21.1884 15.4608C21.6362 15.4608 22 15.1085 22 14.6728L22 0.787057C22 0.352268 21.6362 -2.06584e-07 21.1884 -1.67434e-07Z" fill="#FFE3A7"/>
</svg>
